<svg xmlns="http://www.w3.org/2000/svg" viewBox="0 0 1024 576">
  <defs>
    <linearGradient id="bg" x1="0" y1="0" x2="1" y2="1">
      <stop offset="0" stop-color="#16233f"/><stop offset="1" stop-color="#0b1220"/>
    </linearGradient>
    <linearGradient id="area" x1="0" y1="0" x2="0" y2="1">
      <stop offset="0" stop-color="#f87171" stop-opacity=".5"/><stop offset="1" stop-color="#f87171" stop-opacity="0"/>
    </linearGradient>
  </defs>
  <rect width="1024" height="576" fill="url(#bg)"/>
  <g stroke="#94b2e2" stroke-opacity=".12">
    <path d="M0 144h1024M0 288h1024M0 432h1024M170 0v576M512 0v576M854 0v576"/>
  </g>
  <path d="M40 140 L180 170 L300 120 L420 210 L560 330 L680 300 L820 400 L984 360 V576 H40 Z" fill="url(#area)"/>
  <path d="M40 140 L180 170 L300 120 L420 210 L560 330 L680 300 L820 400 L984 360" fill="none" stroke="#f87171" stroke-width="5" stroke-linejoin="round"/>
  <circle cx="300" cy="120" r="9" fill="#f87171"/><circle cx="680" cy="300" r="9" fill="#fbbf24"/><circle cx="984" cy="360" r="11" fill="#4da3ff"/>
  <text x="984" y="330" fill="#4da3ff" font-family="monospace" font-size="30" text-anchor="end">LH0</text>
  <text x="48" y="80" fill="#93a4c4" font-family="monospace" font-size="26">PRICE CYCLE · 2021→</text>
</svg>
